<?xml version="1.0" standalone="no"?>
<!DOCTYPE svg PUBLIC "-//W3C//DTD SVG 20010904//EN"
 "http://www.w3.org/TR/2001/REC-SVG-20010904/DTD/svg10.dtd">
<svg version="1.0" xmlns="http://www.w3.org/2000/svg"
 width="260.000000pt" height="260.000000pt" viewBox="0 0 260.000000 260.000000"
 preserveAspectRatio="xMidYMid meet">
<metadata>
Created by potrace 1.11, written by Peter Selinger 2001-2013
</metadata>
<g transform="translate(0.000000,260.000000) scale(0.100000,-0.100000)"
fill="#000000" stroke="none">
<path d="M1112 2424 c-427 -72 -785 -399 -900 -822 -24 -89 -26 -113 -26 -287
0 -174 2 -198 27 -288 107 -398 417 -707 812 -812 133 -36 337 -45 471 -21 99
17 253 65 323 101 42 21 45 25 68 106 77 268 247 507 434 609 53 30 66 42 77
74 58 177 33 452 -61 672 -71 169 -217 352 -367 464 -241 179 -559 254 -858
204z m313 -171 c33 -154 22 -138 98 -140 115 -3 200 -44 281 -135 65 -71 90
-142 91 -253 0 -81 -3 -95 -29 -143 -17 -29 -47 -69 -68 -88 -21 -18 -38 -36
-38 -38 0 -2 18 -6 41 -10 97 -15 211 -101 257 -193 31 -61 45 -138 40 -223
-9 -149 -100 -277 -248 -347 -41 -20 -76 -36 -77 -37 -1 -1 9 -48 22 -106 13
-58 21 -108 17 -111 -4 -4 -54 -17 -112 -29 -58 -12 -115 -24 -126 -27 -19 -4
-23 2 -34 49 -6 29 -16 74 -21 100 -9 40 -14 48 -33 48 -13 0 -25 -3 -28 -6
-3 -3 3 -44 13 -92 10 -47 19 -93 19 -102 0 -12 -30 -22 -126 -42 -70 -15
-130 -25 -134 -23 -3 2 -15 47 -25 99 -10 53 -23 96 -28 96 -4 0 -81 -16 -169
-35 -89 -20 -165 -32 -169 -28 -4 5 -16 55 -28 113 -12 58 -24 112 -27 121 -4
13 13 20 87 35 88 18 91 19 86 44 -5 34 -201 944 -203 948 -1 2 -41 -4 -89
-14 -63 -12 -89 -14 -94 -6 -11 18 -53 233 -47 239 3 3 78 21 168 40 90 20
164 37 166 38 1 1 -6 43 -18 94 -11 50 -20 97 -20 104 0 10 39 22 123 40 67
15 127 27 132 27 6 0 19 -42 29 -92 24 -119 23 -116 52 -110 29 5 29 9 4 123
-12 51 -19 93 -18 94 5 4 231 53 250 54 13 1 20 -16 33 -76z"/>
<path d="M1221 1804 c-36 -8 -66 -16 -68 -18 -5 -5 58 -301 67 -315 8 -14 164
24 215 52 25 14 47 37 59 60 34 71 0 192 -64 224 -32 16 -127 15 -209 -3z"/>
<path d="M1440 1234 c-14 -3 -57 -11 -97 -20 l-71 -15 8 -29 c5 -16 23 -99 41
-184 18 -85 35 -159 38 -165 9 -14 189 30 247 60 66 34 87 75 81 160 -5 79
-37 144 -84 172 -32 18 -116 29 -163 21z"/>
</g>
</svg>
